<svg width="29" height="31" viewBox="0 0 29 31" fill="none" xmlns="http://www.w3.org/2000/svg">
<path d="M28.5149 1.57074C26.7805 -0.736115 21.8632 -0.343926 15.1562 1.71933C8.44928 3.78259 5.08859 4.81544 5.08859 4.81544C5.07418 4.82031 5.05977 4.82518 5.04295 4.83005L0.834287 6.31599C0.469152 6.4451 0.20491 6.71792 0.0751907 7.1028C-0.0545284 7.48768 -0.0160947 7.87744 0.188093 8.22578L3.94995 14.6445C3.94995 14.6445 0.702166 27.8255 0.699764 28.7731C0.69496 29.7207 0.997637 30.4247 1.64143 30.7633C2.28282 31.1019 2.74885 31.2042 4.62977 30.1908C6.5107 29.1775 17.2798 20.0426 22.2067 14.2426C27.1336 8.44258 30.2517 3.87272 28.5149 1.56587V1.57074Z" fill="#D195FE"/>
</svg>
